<svg width="259" height="366" viewBox="0 0 259 366" fill="none" xmlns="http://www.w3.org/2000/svg">
<path fill-rule="evenodd" clip-rule="evenodd" d="M195.338 0C204.175 0 211.338 7.16333 211.338 16C211.338 26.3357 207.169 36.5273 202.052 45.4746C200.53 48.1353 198.844 50.8228 197.019 53.5261L197.149 53.6323C210.065 64.1687 221.379 76.5933 230.671 90.4854C231.537 91.7798 232.384 93.0872 233.215 94.4067C249.45 120.208 258.841 150.749 258.842 183.484V183.489C258.842 217.905 248.462 249.897 230.663 276.505C221.661 289.962 210.761 302.042 198.346 312.361L198.219 312.466C199.646 314.723 200.979 316.976 202.205 319.22C207.394 328.72 211.338 339.276 211.338 350C211.338 358.836 204.175 366 195.338 366C186.502 366 179.338 358.836 179.338 350C179.338 346.849 178.064 341.78 174.121 334.559C170.275 327.519 164.507 319.547 157.099 310.907C142.284 293.631 122.183 275.146 101.592 257.976C81.0894 240.88 60.5283 225.441 45.0571 214.255C37.3325 208.669 30.9019 204.163 26.415 201.06C24.1719 199.509 22.416 198.31 21.2285 197.504C20.6348 197.101 20.1831 196.797 19.8838 196.595L19.4531 196.306L0 183.318L19.2578 169.826L19.5947 169.589C19.896 169.376 20.3501 169.055 20.9463 168.631C22.1387 167.784 23.8999 166.526 26.1484 164.903C30.6465 161.655 37.0894 156.948 44.8281 151.141C60.3247 139.51 80.9258 123.533 101.474 106.061C122.107 88.5166 142.286 69.8025 157.172 52.687C164.625 44.1196 170.42 36.3267 174.274 29.5879C178.29 22.5664 179.338 18.1643 179.338 16C179.338 7.16333 186.502 0 195.338 0ZM229.788 90.9646C197.134 108.898 175 143.614 175 183.5C175 223.381 197.129 258.094 229.778 276.029C220.864 289.337 210.082 301.289 197.807 311.509C193.095 304.114 187.395 296.693 181.154 289.415C164.603 270.114 142.906 250.278 121.729 232.62C100.458 214.884 79.25 198.965 63.397 187.502C61.0439 185.801 58.8071 184.196 56.7026 182.696C57.6494 181.995 58.624 181.271 59.624 180.526C60.9204 179.561 62.2603 178.559 63.6401 177.523C79.4668 165.646 100.632 149.236 121.855 131.19C142.987 113.221 164.602 93.2729 181.075 74.3333C186.82 67.729 192.108 61.0559 196.588 54.4648C209.374 64.907 220.579 77.2114 229.788 90.9646Z" fill="#1E1E1E"/>
</svg>
