<svg fill="none" viewBox="0 0 1 1">
  <path fill="currentColor" fill-rule="evenodd" d="M.534 0c.024 0 .043.02.043.044a.167.167 0 0 1-.025.08.5.5 0 0 1-.057.077 1.562 1.562 0 0 1-.161.155A3.415 3.415 0 0 1 .153.5a3.276 3.276 0 0 1 .18.139C.392.686.452.74.497.793a.478.478 0 0 1 .056.08.18.18 0 0 1 .025.083.044.044 0 1 1-.087 0A.095.095 0 0 0 .476.914.393.393 0 0 0 .429.85 1.318 1.318 0 0 0 .278.705 2.896 2.896 0 0 0 .054.537L0 .5.053.464a1.232 1.232 0 0 0 .07-.051C.164.381.22.338.276.29.334.242.39.19.43.144A.414.414 0 0 0 .476.081.085.085 0 0 0 .49.044C.49.02.51 0 .534 0Z" clip-rule="evenodd"/>
  <path fill="currentColor" d="M.63.247a.288.288 0 0 0 0 .508.456.456 0 0 0 0-.508Z"/>
</svg>
